<svg xmlns="http://www.w3.org/2000/svg" width="50" height="62"><path d="m 24.093804,61.748483 c -0.38982,-0.19296 -2.42139,-2.50838 -9.68612,-11.0395 -5.0560596,-5.93742 -9.5502496,-11.24875 -9.9870696,-11.80293 -2.08146,-2.64068 -3.44276998,-5.83109 -4.12363998,-9.6644 -0.36419,-2.05031 -0.39971,-5.95931 -0.0717,-7.89103 C 1.1312444,16.014953 3.4416244,11.381463 7.0891644,7.5850129 10.522484,4.0115429 15.049614,1.5140826 19.837934,0.55196258 c 3.62196,-0.72776 6.72509,-0.72752 10.34967,8e-4 9.20787,1.85017032 16.661852,9.02524032 19.090679,18.37635042 0.601226,2.31476 0.730885,3.45039 0.721234,6.31704 -0.0079,2.35529 -0.04573,2.85293 -0.326517,4.29822 -0.748436,3.85245 -2.141178,6.99178 -4.273623,9.63299 -0.325877,0.40362 -4.748753,5.61532 -9.828603,11.58153 -9.83389,11.54976 -9.53629,11.23414 -10.59263,11.23389 -0.21508,-5e-5 -0.61303,-0.10998 -0.88433,-0.24427 z m 9.58417,-15.43504 c 4.70531,-5.52714 8.81339,-10.43074 9.12906,-10.89688 1.210513,-1.78755 2.165066,-4.21232 2.621508,-6.65921 0.347025,-1.86033 0.31999,-5.69683 -0.05318,-7.5464 -0.387846,-1.92232 -0.873934,-3.32438 -1.833215,-5.28771 C 40.026504,8.7279029 33.031634,4.3651629 25.010854,4.3651629 c -8.02078,0 -15.0156596,4.36274 -18.5312996,11.5580801 -0.95928,1.96333 -1.44537,3.36539 -1.83321,5.28771 -0.37317,1.84957 -0.40021,5.68607 -0.0532,7.5464 0.49715,2.66513 1.58692,5.28856 2.95079,7.10349 1.00183,1.33316 17.3893596,20.56811 17.4926296,20.53207 0.0474,-0.0166 3.93607,-4.55233 8.64139,-10.07947 z m -10.01509,-9.26736 c -5.2189,-0.57662 -9.44709,-4.48172 -10.52984,-9.72523 -0.50432,-2.44229 -0.17114,-5.11768 0.92712,-7.44465 2.74787,-5.82211 9.4403,-8.48745 15.4151,-6.13925 2.83765,1.11525 5.14649,3.30056 6.48627,6.13925 0.8763,1.85667 1.08751,2.85257 1.08751,5.12777 0,1.63647 -0.0429,2.09701 -0.27656,2.96638 -0.30759,1.14464 -1.11935,2.95211 -1.71396,3.81635 -2.55004,3.70635 -6.97363,5.74796 -11.39564,5.25938 z m 3.64842,-4.60061 c 3.35266,-1.09619 5.46553,-4.00353 5.45995,-7.51295 -0.005,-2.9577 -1.64809,-5.58942 -4.30972,-6.90159 -4.19846,-2.06982 -9.25387,-0.014 -10.8037,4.39329 -0.37837,1.076 -0.50635,2.96236 -0.27972,4.12299 0.59833,3.06423 3.14733,5.55255 6.3009,6.15087 0.87701,0.1664 2.74894,0.0362 3.63229,-0.25261 z" fill="#fff"/></svg>