<svg xmlns="http://www.w3.org/2000/svg" height="682.667" width="682.667"><path d="m 508.65875,681.48164 c -23.44998,-4.2007 -42.55224,-14.33346 -60.1945,-31.93006 -18.43593,-18.38822 -28.17549,-37.40371 -32.14015,-62.75035 -2.49012,-15.91971 -0.9681,-30.69582 5.606,-54.42418 0.33637,-1.21411 -30.14255,-20.89096 -89.4899,-57.77368 -49.5,-30.76288 -90.74614,-56.24706 -91.65808,-56.63151 -0.91196,-0.38445 -5.11196,2.28577 -9.33334,5.93385 -15.84953,13.697 -33.97441,22.96615 -53.00858,27.10883 -11.76762,2.56115 -35.33034,2.21396 -47.33334,-0.69745 -58.253265,-14.12971 -95.540695,-70.99646 -84.553315,-128.95157 6.89987,-36.39473 29.58583,-65.36958 63.428625,-81.012 16.67083,-7.70539 28.1688,-10.12964 47.12469,-9.93583 29.23444,0.2989 50.84099,8.66412 74.3741,28.79482 4.23908,3.62619 8.43908,6.28408 9.33333,5.90641 0.89425,-0.37765 42.12591,-25.85628 91.62591,-56.61916 59.34735,-36.88272 89.82627,-56.55957 89.4899,-57.77368 -4.47738,-16.16051 -5.69627,-22.38611 -6.36467,-32.50786 -1.37795,-20.866959 3.7302,-42.536009 14.61555,-62 7.60264,-13.594198 27.33169,-33.323259 40.92589,-40.925891 33.50802,-18.7395432 71.12171,-19.8960482 104.66667,-3.218175 23.31311,11.590806 39.18331,27.312205 50.61867,50.144067 8.4468,16.8649 11.52998,29.75932 11.63663,48.666669 0.17783,31.52605 -10.53627,57.85431 -32.46863,79.78667 -21.42472,21.42472 -48.07168,32.44213 -78.45334,32.43721 -29.32444,-0.005 -53.90413,-9.48034 -75.98672,-29.29321 l -7.32005,-6.56768 -8.01328,5.01204 c -4.40731,2.75663 -45.51328,28.23689 -91.34662,56.62283 -45.83333,28.38592 -83.41476,51.69883 -83.51428,51.80645 -0.0995,0.1076 1.2866,5.8957 3.08028,12.86236 4.55645,17.69739 4.55645,38.30262 0,56.00001 -1.79368,6.96666 -3.1798,12.75473 -3.08028,12.86236 0.0995,0.1076 37.68095,23.42053 83.51428,51.80645 45.83334,28.38594 86.93931,53.8662 91.34662,56.62283 l 8.01328,5.01204 7.32005,-6.56768 c 22.06883,-19.80053 46.61331,-29.26841 75.98672,-29.31144 30.38382,-0.0445 56.93907,10.94117 78.45334,32.45544 21.93236,21.93236 32.64646,48.26062 32.46863,79.78667 -0.10667,18.90735 -3.18983,31.80176 -11.63663,48.66667 -11.47449,22.91 -27.49965,38.76 -50.61867,50.06537 -7.33333,3.58607 -17.23333,7.45858 -22,8.60559 -10.70712,2.57648 -35.56007,3.63736 -45.11479,1.92577 z m 37.20613,-42.05724 c 30.4302,-8.93817 51.90866,-36.97405 51.90866,-67.75647 0,-23.65634 -12.94721,-47.48232 -32.66666,-60.11452 -39.96137,-25.59908 -93.04023,-5.38501 -106.5395,40.5735 -2.65119,9.026 -2.74632,27.64618 -0.19032,37.24944 6.25145,23.4876 26.37133,43.6908 50.06315,50.27047 8.75876,2.43248 28.79136,2.31342 37.42467,-0.22242 z M 179.5714,408.49873 c 20.14062,-7.32895 36.38132,-23.53284 43.71288,-43.61383 4.17526,-11.43597 4.19185,-35.1934 0.0325,-46.55903 -10.04885,-27.45905 -34.26033,-45.58803 -62.94149,-47.12907 -14.23509,-0.76485 -23.92614,1.20074 -36.28522,7.35954 -17.26971,8.60588 -30.331925,24.58292 -36.166645,44.23722 -2.80082,9.43458 -2.80082,28.08143 0,37.51601 7.25348,24.43338 26.065635,43.19774 49.999855,49.8728 10.31499,2.87677 31.46531,2.02176 41.6481,-1.68364 z M 540.59156,181.55987 c 12.29554,-2.26846 27.53388,-10.73216 36.9187,-20.50548 27.02831,-28.14718 26.85751,-71.643899 -0.3881,-98.836169 -13.85578,-13.828649 -30.41394,-20.677868 -49.92395,-20.650843 -20.73776,0.02873 -35.59384,6.153347 -50.09134,20.650843 -14.59794,14.59795 -20.62192,29.20988 -20.65084,50.091339 -0.0272,19.59785 6.86766,36.18589 20.75091,49.92412 16.78856,16.61317 39.89797,23.65932 63.38462,19.32619 z" fill="#0b0e0b"/></svg>