<?xml version="1.0" encoding="UTF-8" standalone="no"?>
<svg xmlns:dc="http://purl.org/dc/elements/1.1/" xmlns:cc="http://creativecommons.org/ns#" xmlns:rdf="http://www.w3.org/1999/02/22-rdf-syntax-ns#" xmlns:svg="http://www.w3.org/2000/svg" xmlns="http://www.w3.org/2000/svg" viewBox="0 0 50 78" height="78" width="50" id="svg2" version="1.1">
   <metadata id="metadata8">
      <rdf:RDF>
         <cc:Work rdf:about="">
            <dc:format>image/svg+xml</dc:format>
            <dc:type rdf:resource="http://purl.org/dc/dcmitype/StillImage" />
            <dc:title></dc:title>
         </cc:Work>
      </rdf:RDF>
   </metadata>
   <defs id="defs6" />
   <path id="path12" d="m 3.986864,77.590096 c -1.9347,-0.584473 -3.29865995,-2.045788 -3.84270995,-4.116994 -0.38741,-1.47483 0.0232,-3.261562 1.02552995,-4.462404 0.40435,-0.484436 8.37359,-7.407689 17.70942,-15.385004 C 28.214938,45.648379 35.860485,39.04301 35.869211,38.94709 35.877911,38.85119 28.571459,32.51256 19.632593,24.86129 10.693724,17.21001 2.821544,10.41194 2.138844,9.7544597 c -1.43875995,-1.38562 -2.14011995,-3.23062 -1.85217995,-4.87233 0.5997,-3.41921 4.15524995,-5.54309 7.28108995,-4.34932 0.90691,0.34635 6.172698,4.71631 21.065372,17.4816803 10.920913,9.36094 20.10193,17.36498 20.40226,17.78676 0.951751,1.33661 1.208687,2.93333 0.728577,4.5277 -0.228982,0.76042 -0.677302,1.68696 -0.99627,2.059 -1.263462,1.473665 -40.179229,34.489619 -41.197939,34.952145 -1.12993,0.513014 -2.41537,0.602707 -3.58289,0.250001 z" style="fill:#0B0E0B;stroke-width:0.25900373" />
</svg>
