<svg xmlns="http://www.w3.org/2000/svg" width="24" height="25" viewBox="0 0 24 25" fill="none">
  <path d="M10.3356 23.3547V12.4837L0.838021 6.99V17.2325C0.838021 17.4187 0.884577 17.5933 0.977691 17.7563C1.0708 17.9192 1.21047 18.0589 1.3967 18.1753L10.3356 23.3547ZM11.1736 23.3547L20.1125 18.1753C20.2987 18.0589 20.4384 17.9192 20.5315 17.7563C20.6246 17.5933 20.6712 17.4187 20.6712 17.2325V6.99L11.1736 12.4799V23.3547ZM10.7546 11.7854L20.1474 6.33823L11.3133 1.22861C11.1271 1.12774 10.9408 1.07731 10.7546 1.07731C10.5684 1.07731 10.3821 1.12774 10.1959 1.22861L1.36178 6.33823L10.7546 11.7854ZM0.977691 18.9085C0.663433 18.7312 0.42192 18.489 0.253152 18.1819C0.084384 17.8749 0 17.5506 0 17.2092V7.29263C0 6.9512 0.084384 6.62696 0.253152 6.3199C0.42192 6.01281 0.663433 5.77061 0.977691 5.5933L9.77691 0.507C10.0924 0.336277 10.4195 0.250916 10.7584 0.250916C11.0973 0.250916 11.4219 0.336277 11.7323 0.507L20.5315 5.5933C20.8458 5.77061 21.0873 6.01281 21.256 6.3199C21.4248 6.62696 21.5092 6.9512 21.5092 7.29263V17.2092C21.5092 17.5506 21.4248 17.8749 21.256 18.1819C21.0873 18.489 20.8458 18.7312 20.5315 18.9085L11.7323 23.9948C11.4168 24.1656 11.0897 24.2509 10.7508 24.2509C10.4119 24.2509 10.0873 24.1656 9.77691 23.9948L0.977691 18.9085Z" fill="#1C1B1F"/>
</svg>
