<svg xmlns="http://www.w3.org/2000/svg" width="22" height="24" viewBox="0 0 22 24" fill="none">
  <path d="M2.19994 24C1.61515 24 1.11807 23.7953 0.708716 23.386C0.299359 22.9766 0.0946808 22.4795 0.0946808 21.8947V7.29825C0.0946808 6.71345 0.299359 6.21637 0.708716 5.80702C1.11807 5.39766 1.61515 5.19298 2.19994 5.19298H5.70872C5.70872 3.74269 6.21164 2.51462 7.21749 1.50877C8.22334 0.502924 9.45141 0 10.9017 0C12.352 0 13.5801 0.502924 14.5859 1.50877C15.5918 2.51462 16.0947 3.74269 16.0947 5.19298H19.6035C20.1882 5.19298 20.6853 5.39766 21.0947 5.80702C21.504 6.21637 21.7087 6.71345 21.7087 7.29825V21.8947C21.7087 22.4795 21.504 22.9766 21.0947 23.386C20.6853 23.7953 20.1882 24 19.6035 24H2.19994ZM2.19994 23.0175H19.6035C19.8842 23.0175 20.1415 22.9006 20.3754 22.6667C20.6093 22.4327 20.7263 22.1754 20.7263 21.8947V7.29825C20.7263 7.01754 20.6093 6.76023 20.3754 6.52632C20.1415 6.2924 19.8842 6.17544 19.6035 6.17544H2.19994C1.91924 6.17544 1.66193 6.2924 1.42801 6.52632C1.1941 6.76023 1.07714 7.01754 1.07714 7.29825V21.8947C1.07714 22.1754 1.1941 22.4327 1.42801 22.6667C1.66193 22.9006 1.91924 23.0175 2.19994 23.0175ZM10.9017 12.7719C12.352 12.7719 13.5801 12.269 14.5859 11.2632C15.5918 10.2573 16.0947 9.02924 16.0947 7.57895H15.1122C15.1122 8.74854 14.7029 9.74269 13.8842 10.5614C13.0654 11.3801 12.0713 11.7895 10.9017 11.7895C9.73211 11.7895 8.73796 11.3801 7.91924 10.5614C7.10053 9.74269 6.69117 8.74854 6.69117 7.57895H5.70872C5.70872 9.02924 6.21164 10.2573 7.21749 11.2632C8.22334 12.269 9.45141 12.7719 10.9017 12.7719ZM6.69117 5.19298H15.1122C15.1122 4.02339 14.7029 3.02924 13.8842 2.21053C13.0654 1.39181 12.0713 0.982456 10.9017 0.982456C9.73211 0.982456 8.73796 1.39181 7.91924 2.21053C7.10053 3.02924 6.69117 4.02339 6.69117 5.19298Z" fill="#C0E021"/>
</svg>
