<svg xmlns="http://www.w3.org/2000/svg" width="22" height="24" viewBox="0 0 22 24" fill="none">
  <path d="M2.39945 24C1.81466 24 1.31758 23.7953 0.908224 23.386C0.498868 22.9766 0.294189 22.4795 0.294189 21.8947V7.29825C0.294189 6.71345 0.498868 6.21637 0.908224 5.80702C1.31758 5.39766 1.81466 5.19298 2.39945 5.19298H5.90822C5.90822 3.74269 6.41115 2.51462 7.417 1.50877C8.42284 0.502924 9.65091 0 11.1012 0C12.5515 0 13.7796 0.502924 14.7854 1.50877C15.7913 2.51462 16.2942 3.74269 16.2942 5.19298H19.803C20.3878 5.19298 20.8848 5.39766 21.2942 5.80702C21.7035 6.21637 21.9082 6.71345 21.9082 7.29825V21.8947C21.9082 22.4795 21.7035 22.9766 21.2942 23.386C20.8848 23.7953 20.3878 24 19.803 24H2.39945ZM2.39945 23.0175H19.803C20.0837 23.0175 20.341 22.9006 20.5749 22.6667C20.8088 22.4327 20.9258 22.1754 20.9258 21.8947V7.29825C20.9258 7.01754 20.8088 6.76023 20.5749 6.52632C20.341 6.2924 20.0837 6.17544 19.803 6.17544H2.39945C2.11875 6.17544 1.86144 6.2924 1.62752 6.52632C1.3936 6.76023 1.27665 7.01754 1.27665 7.29825V21.8947C1.27665 22.1754 1.3936 22.4327 1.62752 22.6667C1.86144 22.9006 2.11875 23.0175 2.39945 23.0175ZM11.1012 12.7719C12.5515 12.7719 13.7796 12.269 14.7854 11.2632C15.7913 10.2573 16.2942 9.02924 16.2942 7.57895H15.3117C15.3117 8.74854 14.9024 9.74269 14.0837 10.5614C13.2649 11.3801 12.2708 11.7895 11.1012 11.7895C9.93162 11.7895 8.93746 11.3801 8.11875 10.5614C7.30004 9.74269 6.89068 8.74854 6.89068 7.57895H5.90822C5.90822 9.02924 6.41115 10.2573 7.417 11.2632C8.42284 12.269 9.65091 12.7719 11.1012 12.7719ZM6.89068 5.19298H15.3117C15.3117 4.02339 14.9024 3.02924 14.0837 2.21053C13.2649 1.39181 12.2708 0.982456 11.1012 0.982456C9.93162 0.982456 8.93746 1.39181 8.11875 2.21053C7.30004 3.02924 6.89068 4.02339 6.89068 5.19298Z" fill="black"/>
</svg>
