<?xml version="1.0" encoding="UTF-8" standalone="no"?>
<svg xmlns:dc="http://purl.org/dc/elements/1.1/" xmlns:cc="http://creativecommons.org/ns#" xmlns:rdf="http://www.w3.org/1999/02/22-rdf-syntax-ns#" xmlns:svg="http://www.w3.org/2000/svg" xmlns="http://www.w3.org/2000/svg" version="1.1" id="svg2" width="50" height="50" viewBox="0 0 50 50">
   <metadata id="metadata8">
      <rdf:RDF>
         <cc:Work rdf:about="">
            <dc:format>image/svg+xml</dc:format>
            <dc:type rdf:resource="http://purl.org/dc/dcmitype/StillImage" />
            <dc:title></dc:title>
         </cc:Work>
      </rdf:RDF>
   </metadata>
   <defs id="defs6" />
   <path style="fill:#0B0E0B;stroke-width:0.0977161" d="M 1.7232819,49.885067 C 0.41003219,49.469533 -0.29472565,48.095279 0.13011269,46.77844 0.29213088,46.276248 0.77608258,45.775773 10.914362,35.626026 L 21.528981,24.9994 10.915335,14.372774 C 1.1786543,4.6241856 0.28859258,3.7063588 0.1431832,3.2645892 -0.17029494,2.3122051 0.03564467,1.3937099 0.71497777,0.71437675 1.3943099,0.03504463 2.3128051,-0.17089498 3.2651892,0.14258316 3.7069588,0.28799156 4.6247856,1.1780543 14.373374,10.914735 L 25,21.52838 35.626627,10.914735 C 45.375215,1.1780543 46.293042,0.28799156 46.734811,0.14258316 47.687195,-0.17089498 48.605691,0.03504463 49.285024,0.71437675 49.964356,1.3937099 50.170295,2.3122051 49.856817,3.2645892 49.711408,3.7063588 48.821346,4.6241856 39.084666,14.372774 L 28.47102,24.9994 39.084666,35.626026 c 9.73668,9.748588 10.626742,10.666415 10.772151,11.108185 0.315183,0.957563 0.101509,1.885695 -0.588513,2.55632 -0.694229,0.674713 -1.59274,0.875335 -2.533493,0.565686 -0.441769,-0.14541 -1.359596,-1.035471 -11.108184,-10.772152 L 25,28.470419 14.373374,39.084065 C 4.6247856,48.820746 3.7069588,49.710807 3.2651892,49.856217 c -0.5552766,0.18277 -1.0275366,0.191606 -1.5419073,0.02885 z" id="path12" />
</svg>