<svg xmlns="http://www.w3.org/2000/svg" width="24" height="24" viewBox="0 0 24 24" fill="none">
  <path d="M12 22.1034L11.2414 21.4138C9.0115 19.3678 7.16667 17.6207 5.7069 16.1724C4.24713 14.7241 3.0977 13.454 2.25862 12.3621C1.41954 11.2701 0.833333 10.2874 0.5 9.41379C0.166667 8.54023 0 7.66667 0 6.7931C0 5.16092 0.557471 3.78736 1.67241 2.67241C2.78736 1.55747 4.16092 1 5.7931 1C7.0115 1 8.14943 1.32759 9.2069 1.98276C10.2644 2.63793 11.1954 3.5977 12 4.86207C12.8046 3.5977 13.7356 2.63793 14.7931 1.98276C15.8506 1.32759 16.9885 1 18.2069 1C19.8391 1 21.2126 1.55747 22.3276 2.67241C23.4425 3.78736 24 5.16092 24 6.7931C24 7.66667 23.8333 8.54023 23.5 9.41379C23.1667 10.2874 22.5805 11.2701 21.7414 12.3621C20.9023 13.454 19.7586 14.7241 18.3103 16.1724C16.8621 17.6207 15.0115 19.3678 12.7586 21.4138L12 22.1034ZM12 20.7931C14.2069 18.7931 16.023 17.0805 17.4483 15.6552C18.8736 14.2299 20 12.9943 20.8276 11.9483C21.6552 10.9023 22.2299 9.97701 22.5517 9.17241C22.8736 8.36782 23.0345 7.57471 23.0345 6.7931C23.0345 5.41379 22.5747 4.26437 21.6552 3.34483C20.7356 2.42529 19.5862 1.96552 18.2069 1.96552C17.1034 1.96552 16.0862 2.28161 15.1552 2.91379C14.2241 3.54598 13.3333 4.54023 12.4828 5.89655H11.5172C10.6437 4.51724 9.74713 3.51724 8.82759 2.89655C7.90805 2.27586 6.89655 1.96552 5.7931 1.96552C4.43678 1.96552 3.2931 2.42529 2.36207 3.34483C1.43103 4.26437 0.965517 5.41379 0.965517 6.7931C0.965517 7.57471 1.12644 8.36782 1.44828 9.17241C1.77012 9.97701 2.34483 10.9023 3.17241 11.9483C4 12.9943 5.12644 14.2241 6.55172 15.6379C7.97701 17.0517 9.7931 18.7701 12 20.7931Z" fill="black"/>
</svg>
