<svg xmlns="http://www.w3.org/2000/svg" width="14.897" height="13.491" viewBox="0 0 14.897 13.491">
  <g id="Grupo_105" data-name="Grupo 105" transform="translate(-381.165 -159.148)">
    <path id="Caminho_63" data-name="Caminho 63" d="M395.628,175.713H388.77a1.593,1.593,0,0,0-3.072,0h-4.1a.434.434,0,0,0,0,.868h4.1a1.593,1.593,0,0,0,3.072,0h6.858a.434.434,0,0,0,0-.868Z" transform="translate(0 -5.111)"/>
    <path id="Caminho_64" data-name="Caminho 64" d="M395.628,168.265h-2.182a1.593,1.593,0,0,0-3.072,0H381.6a.434.434,0,0,0,0,.868h8.775a1.593,1.593,0,0,0,3.072,0h2.182a.434.434,0,0,0,0-.868Z" transform="translate(0 -2.639)"/>
    <path id="Caminho_65" data-name="Caminho 65" d="M381.6,161.185h.759a1.593,1.593,0,0,0,3.072,0h10.2a.434.434,0,0,0,0-.868h-10.2a1.593,1.593,0,0,0-3.072,0H381.6a.434.434,0,0,0,0,.868Z"/>
  </g>
</svg>
