<svg xmlns="http://www.w3.org/2000/svg" width="24" height="24" viewBox="0 0 24 24" fill="none">
  <path d="M9.40638 11.5007C9.97621 11.5007 10.462 11.2978 10.8637 10.892C11.2654 10.4863 11.4663 9.99845 11.4663 9.42863C11.4663 8.8588 11.2634 8.37303 10.8576 7.97131C10.4518 7.56958 9.96402 7.36872 9.39419 7.36872C8.82437 7.36872 8.33859 7.57162 7.93687 7.9774C7.53515 8.38319 7.33429 8.87099 7.33429 9.44081C7.33429 10.0106 7.53718 10.4964 7.94297 10.8981C8.34875 11.2999 8.83656 11.5007 9.40638 11.5007ZM9.40029 22.6915C11.9254 20.5337 13.9627 18.2554 15.5122 15.8565C17.0617 13.4577 17.8364 11.3974 17.8364 9.67575C17.8364 7.15065 17.0387 5.06169 15.4433 3.4089C13.8479 1.7561 11.8336 0.929699 9.40029 0.929699C6.967 0.929699 4.95265 1.7561 3.35725 3.4089C1.76184 5.06169 0.964132 7.15065 0.964132 9.67575C0.964132 11.3974 1.73888 13.4577 3.28838 15.8565C4.83788 18.2554 6.87518 20.5337 9.40029 22.6915ZM9.40029 24C6.30129 21.2224 3.95983 18.6284 2.3759 16.2181C0.791966 13.8077 0 11.627 0 9.67575C0 6.92109 0.901004 4.6198 2.70301 2.77188C4.50502 0.92396 6.73745 0 9.40029 0C12.0631 0 14.2956 0.92396 16.0976 2.77188C17.8996 4.6198 18.8006 6.92109 18.8006 9.67575C18.8006 11.627 18.0086 13.8077 16.4247 16.2181C14.8407 18.6284 12.4993 21.2224 9.40029 24Z" fill="black"/>
</svg>
