<svg xmlns="http://www.w3.org/2000/svg" width="25" height="24" viewBox="0 0 25 24" fill="none">
  <path d="M4.23261 19.7241C5.40503 18.8966 6.62916 18.2414 7.90503 17.7586C9.18089 17.2759 10.5774 17.0345 12.0947 17.0345C13.6119 17.0345 15.0085 17.2759 16.2843 17.7586C17.5602 18.2414 18.7843 18.8966 19.9568 19.7241C20.8993 18.7816 21.6636 17.6552 22.2499 16.3448C22.8361 15.0345 23.1292 13.5862 23.1292 12C23.1292 8.94253 22.0545 6.33908 19.905 4.18966C17.7556 2.04023 15.1522 0.965517 12.0947 0.965517C9.03721 0.965517 6.43376 2.04023 4.28434 4.18966C2.13491 6.33908 1.0602 8.94253 1.0602 12C1.0602 13.5862 1.3533 15.0345 1.93951 16.3448C2.52572 17.6552 3.29008 18.7816 4.23261 19.7241ZM12.0957 12.4828C10.9916 12.4828 10.0602 12.1038 9.30158 11.3459C8.54296 10.5879 8.16365 9.6569 8.16365 8.55276C8.16365 7.44862 8.54261 6.51724 9.30054 5.75862C10.0585 5 10.9895 4.62069 12.0936 4.62069C13.1978 4.62069 14.1292 4.99965 14.8878 5.75759C15.6464 6.51552 16.0257 7.44655 16.0257 8.55069C16.0257 9.65483 15.6468 10.5862 14.8888 11.3448C14.1309 12.1034 13.1999 12.4828 12.0957 12.4828ZM12.0947 24C10.4165 24 8.84755 23.6897 7.38778 23.069C5.92801 22.4483 4.6579 21.5977 3.57744 20.5172C2.49698 19.4368 1.6464 18.1667 1.02572 16.7069C0.405026 15.2471 0.0946808 13.6782 0.0946808 12C0.0946808 10.3218 0.405026 8.75287 1.02572 7.2931C1.6464 5.83333 2.49698 4.56322 3.57744 3.48276C4.6579 2.4023 5.92801 1.55172 7.38778 0.931035C8.84755 0.310345 10.4165 0 12.0947 0C13.7728 0 15.3418 0.310345 16.8016 0.931035C18.2613 1.55172 19.5315 2.4023 20.6119 3.48276C21.6924 4.56322 22.543 5.83333 23.1636 7.2931C23.7843 8.75287 24.0947 10.3218 24.0947 12C24.0947 13.6782 23.7843 15.2471 23.1636 16.7069C22.543 18.1667 21.6924 19.4368 20.6119 20.5172C19.5315 21.5977 18.2613 22.4483 16.8016 23.069C15.3418 23.6897 13.7728 24 12.0947 24ZM12.0947 23.0345C13.382 23.0345 14.6636 22.7989 15.9395 22.3276C17.2154 21.8563 18.3016 21.2184 19.1981 20.4138C18.3016 19.6782 17.2499 19.092 16.043 18.6552C14.8361 18.2184 13.52 18 12.0947 18C10.6694 18 9.34756 18.2126 8.12916 18.6379C6.91077 19.0632 5.8648 19.6552 4.99123 20.4138C5.88778 21.2184 6.97399 21.8563 8.24985 22.3276C9.52571 22.7989 10.8073 23.0345 12.0947 23.0345ZM12.0947 11.5172C12.9223 11.5172 13.6234 11.2299 14.1981 10.6552C14.7728 10.0805 15.0602 9.37931 15.0602 8.55172C15.0602 7.72414 14.7728 7.02299 14.1981 6.44828C13.6234 5.87356 12.9223 5.58621 12.0947 5.58621C11.2671 5.58621 10.5659 5.87356 9.99123 6.44828C9.41652 7.02299 9.12916 7.72414 9.12916 8.55172C9.12916 9.37931 9.41652 10.0805 9.99123 10.6552C10.5659 11.2299 11.2671 11.5172 12.0947 11.5172Z" fill="#C0E021"/>
</svg>
