<svg xmlns="http://www.w3.org/2000/svg" width="24" height="24" viewBox="0 0 24 24" fill="none">
  <path d="M4.13793 19.7241C5.31035 18.8966 6.53448 18.2414 7.81034 17.7586C9.08621 17.2759 10.4828 17.0345 12 17.0345C13.5172 17.0345 14.9138 17.2759 16.1897 17.7586C17.4655 18.2414 18.6897 18.8966 19.8621 19.7241C20.8046 18.7816 21.569 17.6552 22.1552 16.3448C22.7414 15.0345 23.0345 13.5862 23.0345 12C23.0345 8.94253 21.9598 6.33908 19.8103 4.18966C17.6609 2.04023 15.0575 0.965517 12 0.965517C8.94253 0.965517 6.33908 2.04023 4.18966 4.18966C2.04023 6.33908 0.965517 8.94253 0.965517 12C0.965517 13.5862 1.25862 15.0345 1.84483 16.3448C2.43103 17.6552 3.1954 18.7816 4.13793 19.7241ZM12.001 12.4828C10.8969 12.4828 9.96552 12.1038 9.2069 11.3459C8.44828 10.5879 8.06897 9.6569 8.06897 8.55276C8.06897 7.44862 8.44793 6.51724 9.20586 5.75862C9.96379 5 10.8948 4.62069 11.999 4.62069C13.1031 4.62069 14.0345 4.99965 14.7931 5.75759C15.5517 6.51552 15.931 7.44655 15.931 8.55069C15.931 9.65483 15.5521 10.5862 14.7941 11.3448C14.0362 12.1034 13.1052 12.4828 12.001 12.4828ZM12 24C10.3218 24 8.75287 23.6897 7.2931 23.069C5.83333 22.4483 4.56322 21.5977 3.48276 20.5172C2.4023 19.4368 1.55172 18.1667 0.931035 16.7069C0.310345 15.2471 0 13.6782 0 12C0 10.3218 0.310345 8.75287 0.931035 7.2931C1.55172 5.83333 2.4023 4.56322 3.48276 3.48276C4.56322 2.4023 5.83333 1.55172 7.2931 0.931035C8.75287 0.310345 10.3218 0 12 0C13.6782 0 15.2471 0.310345 16.7069 0.931035C18.1667 1.55172 19.4368 2.4023 20.5172 3.48276C21.5977 4.56322 22.4483 5.83333 23.069 7.2931C23.6897 8.75287 24 10.3218 24 12C24 13.6782 23.6897 15.2471 23.069 16.7069C22.4483 18.1667 21.5977 19.4368 20.5172 20.5172C19.4368 21.5977 18.1667 22.4483 16.7069 23.069C15.2471 23.6897 13.6782 24 12 24ZM12 23.0345C13.2874 23.0345 14.569 22.7989 15.8448 22.3276C17.1207 21.8563 18.2069 21.2184 19.1034 20.4138C18.2069 19.6782 17.1552 19.092 15.9483 18.6552C14.7414 18.2184 13.4253 18 12 18C10.5747 18 9.25287 18.2126 8.03448 18.6379C6.81609 19.0632 5.77011 19.6552 4.89655 20.4138C5.7931 21.2184 6.87931 21.8563 8.15517 22.3276C9.43103 22.7989 10.7126 23.0345 12 23.0345ZM12 11.5172C12.8276 11.5172 13.5287 11.2299 14.1034 10.6552C14.6782 10.0805 14.9655 9.37931 14.9655 8.55172C14.9655 7.72414 14.6782 7.02299 14.1034 6.44828C13.5287 5.87356 12.8276 5.58621 12 5.58621C11.1724 5.58621 10.4713 5.87356 9.89655 6.44828C9.32184 7.02299 9.03448 7.72414 9.03448 8.55172C9.03448 9.37931 9.32184 10.0805 9.89655 10.6552C10.4713 11.2299 11.1724 11.5172 12 11.5172Z" fill="black"/>
</svg>
