<svg width="23" height="20" viewBox="0 0 23 20" fill="none" xmlns="http://www.w3.org/2000/svg">
<path d="M11.3725 20L10.6536 19.3464C8.54031 17.4074 6.79194 15.7516 5.4085 14.3791C4.02506 13.0065 2.93573 11.8028 2.14052 10.768C1.34532 9.73312 0.78976 8.80174 0.473856 7.97386C0.157952 7.14597 0 6.31808 0 5.4902C0 3.94336 0.528322 2.64161 1.58497 1.58497C2.64161 0.528322 3.94336 0 5.4902 0C6.64488 0 7.72331 0.310458 8.72549 0.931373C9.72767 1.55229 10.61 2.46187 11.3725 3.66013C12.1351 2.46187 13.0174 1.55229 14.0196 0.931373C15.0218 0.310458 16.1002 0 17.2549 0C18.8017 0 20.1035 0.528322 21.1601 1.58497C22.2168 2.64161 22.7451 3.94336 22.7451 5.4902C22.7451 6.31808 22.5871 7.14597 22.2712 7.97386C21.9553 8.80174 21.3998 9.73312 20.6046 10.768C19.8094 11.8028 18.7255 13.0065 17.3529 14.3791C15.9804 15.7516 14.2266 17.4074 12.0915 19.3464L11.3725 20ZM11.3725 18.7582C13.4641 16.8627 15.1852 15.2397 16.5359 13.8889C17.8867 12.5381 18.9543 11.3671 19.7386 10.3758C20.5229 9.38453 21.0675 8.50763 21.3726 7.7451C21.6776 6.98257 21.8301 6.23094 21.8301 5.4902C21.8301 4.18301 21.3943 3.09368 20.5229 2.22222C19.6514 1.35076 18.5621 0.915033 17.2549 0.915033C16.2092 0.915033 15.2451 1.2146 14.3627 1.81373C13.4804 2.41285 12.6362 3.35512 11.8301 4.64052H10.915C10.0871 3.33333 9.23747 2.38562 8.36601 1.79739C7.49455 1.20915 6.53595 0.915033 5.4902 0.915033C4.20479 0.915033 3.12092 1.35076 2.23856 2.22222C1.35621 3.09368 0.915033 4.18301 0.915033 5.4902C0.915033 6.23094 1.06754 6.98257 1.37255 7.7451C1.67756 8.50763 2.22222 9.38453 3.00654 10.3758C3.79085 11.3671 4.85839 12.5327 6.20915 13.8725C7.55991 15.2124 9.28105 16.841 11.3725 18.7582Z" fill="#DBDED6"/>
</svg>
