<svg width="23" height="20" viewBox="0 0 23 20" fill="none" xmlns="http://www.w3.org/2000/svg">
<path d="M11.3725 20L10.6536 19.3464C8.54031 17.4074 6.79194 15.7516 5.4085 14.3791C4.02505 13.0065 2.93573 11.8028 2.14052 10.768C1.34532 9.73312 0.78976 8.80174 0.473856 7.97386C0.157952 7.14597 0 6.31808 0 5.4902C0 3.94336 0.528322 2.64161 1.58497 1.58497C2.64161 0.528322 3.94336 0 5.4902 0C6.64488 0 7.72331 0.310458 8.72549 0.931373C9.72767 1.55229 10.61 2.46187 11.3725 3.66013C12.1351 2.46187 13.0174 1.55229 14.0196 0.931373C15.0218 0.310458 16.1002 0 17.2549 0C18.8017 0 20.1035 0.528322 21.1601 1.58497C22.2168 2.64161 22.7451 3.94336 22.7451 5.4902C22.7451 6.31808 22.5871 7.14597 22.2712 7.97386C21.9553 8.80174 21.3998 9.73312 20.6046 10.768C19.8094 11.8028 18.7255 13.0065 17.3529 14.3791C15.9804 15.7516 14.2266 17.4074 12.0915 19.3464L11.3725 20Z" fill="#C0E021"/>
</svg>
